<?xml version="1.0" encoding="utf-8"?>
<!-- Generator: Adobe Illustrator 19.0.0, SVG Export Plug-In . SVG Version: 6.00 Build 0)  -->
<svg version="1.1" id="圖層_1" xmlns="http://www.w3.org/2000/svg" xmlns:xlink="http://www.w3.org/1999/xlink" x="0px" y="0px"
	 viewBox="0 0 512 123.5" style="enable-background:new 0 0 512 123.5;" xml:space="preserve">
<style type="text/css">
	.st0{fill:#05824A;}
	.st1{fill:#FFFFFF;}
</style>
<g>
	<rect class="st0" width="496.2" height="123.5"/>
	<g>
		<path class="st1" d="M48.7,28.5H69c5.3,0,10,0.9,14,2.8c4,1.9,7.4,4.5,10,7.7c2.6,3.3,4.4,7.1,5.4,11.6c1,4.5,1.1,9.3,0.2,14.6
			c-0.8,5.2-2.5,10-4.9,14.4c-2.4,4.4-5.5,8.3-9.1,11.6c-3.7,3.3-7.8,5.8-12.4,7.7c-4.6,1.9-9.6,2.8-14.8,2.8H37.1L48.7,28.5z
			 M53.3,89.3h2.3c4.4,0,8.2-0.6,11.5-1.7c3.3-1.2,6.1-2.8,8.4-4.9c2.3-2.1,4.1-4.6,5.5-7.6c1.4-3,2.3-6.3,2.9-9.9
			c1.3-8,0.2-14.1-3.2-18.1c-3.4-4-9.2-6.1-17.4-6.1H61L53.3,89.3z"/>
		<path class="st1" d="M119.8,59h0.2c1.7-2.1,3.6-3.7,5.8-4.8c2.2-1.1,4.5-1.7,7-1.7c1,0,1.9,0.1,2.9,0.3c0.9,0.2,1.8,0.5,2.6,0.8
			l-3.6,12.6c-1.5-1.2-3.3-1.7-5.3-1.7c-2.3,0-4.3,0.5-5.8,1.4c-1.6,0.9-2.8,2.2-3.7,3.7c-0.9,1.5-1.7,3.2-2.2,5.1
			c-0.5,1.9-0.9,3.7-1.2,5.5l-3.4,21.5H99.4L107,54h13.6L119.8,59z"/>
		<path class="st1" d="M149.3,101.7h-13.6l7.6-47.7h13.6L149.3,101.7z M154.6,26c2.3,0,4,0.8,5.3,2.4c1.3,1.6,1.7,3.5,1.4,5.7
			c-0.2,1.1-0.6,2.2-1.1,3.2c-0.6,1-1.3,1.9-2.1,2.6c-0.8,0.7-1.8,1.3-2.9,1.7c-1.1,0.4-2.2,0.6-3.3,0.6c-2.3,0-4-0.8-5.3-2.3
			c-1.3-1.6-1.8-3.5-1.5-5.7c0.4-2.2,1.5-4.1,3.3-5.7C150.3,26.8,152.3,26,154.6,26"/>
		<path class="st1" d="M180.1,58.4h0.2c1.7-2.1,3.8-3.7,6.1-4.6c2.3-0.9,4.7-1.4,7.2-1.4c3.2,0,5.7,0.5,7.7,1.6
			c2,1.1,3.4,2.5,4.4,4.3c1,1.8,1.5,3.9,1.7,6.4c0.2,2.4,0,5-0.4,7.8l-4.7,29.1h-13.6l4-25.2c0.3-1.4,0.5-2.9,0.7-4.5
			c0.2-1.6,0.2-3,0-4.2c-0.2-1.3-0.8-2.3-1.7-3.2c-0.9-0.8-2.3-1.3-4.2-1.3c-2,0-3.6,0.5-4.9,1.5c-1.3,1-2.3,2.2-3.1,3.7
			c-0.8,1.5-1.3,3.1-1.7,4.8c-0.4,1.7-0.7,3.3-0.9,4.7l-3.7,23.6h-13.6l7.6-47.7h13.6L180.1,58.4z"/>
		<polygon class="st1" points="230.4,71.5 230.6,71.5 247.7,54 265.4,54 242,75 259.4,101.7 241.5,101.7 229.1,81.4 228.9,81.4 
			225.7,101.7 212.1,101.7 225.1,19.4 238.7,19.4 		"/>
		<path class="st1" d="M293.3,65.3c-0.8-0.9-1.8-1.7-2.9-2.3c-1.1-0.6-2.3-1-3.7-1c-1.1,0-2.2,0.4-3.3,1.2c-1.1,0.8-1.7,1.7-1.9,2.9
			c-0.1,0.9,0,1.7,0.5,2.2c0.5,0.6,1.1,1.1,2,1.6c0.9,0.5,1.9,0.9,3,1.4c1.1,0.4,2.2,0.9,3.3,1.4c1.2,0.5,2.3,1.1,3.4,1.8
			c1.1,0.7,2,1.6,2.7,2.7c0.7,1.1,1.3,2.3,1.6,3.8c0.3,1.5,0.3,3.3,0,5.3c-0.4,2.7-1.2,5-2.6,7.1c-1.3,2.1-3,3.8-4.9,5.3
			c-1.9,1.5-4.1,2.6-6.5,3.3c-2.4,0.8-4.8,1.2-7.3,1.2c-3.2,0-6.2-0.7-8.9-2.1c-2.7-1.4-4.9-3.4-6.6-5.9l7.6-8.1
			c1.1,1.5,2.4,2.8,3.9,3.9c1.5,1.1,3.3,1.6,5.3,1.6c1.5,0,2.8-0.5,4-1.4c1.2-0.9,1.9-2.2,2.2-3.7c0.2-1,0.1-1.9-0.4-2.6
			c-0.5-0.7-1.1-1.3-1.9-1.8c-0.8-0.5-1.7-1-2.8-1.4c-1.1-0.4-2.2-0.9-3.3-1.4c-1.1-0.5-2.2-1.1-3.2-1.7c-1-0.6-1.9-1.5-2.7-2.4
			c-0.7-1-1.3-2.1-1.6-3.4c-0.4-1.3-0.4-3,0-4.9c0.4-2.2,1.1-4.3,2.1-6.2c1-1.9,2.3-3.5,3.9-4.9c1.6-1.4,3.3-2.4,5.2-3.2
			c1.9-0.8,4-1.2,6.3-1.2c1.2,0,2.5,0.1,3.9,0.3c1.4,0.2,2.7,0.5,4,0.9c1.3,0.4,2.5,0.9,3.6,1.6c1.1,0.6,2.1,1.3,3,2.2L293.3,65.3z"
			/>
		<polygon class="st1" points="318.2,101.7 304.6,101.7 310.3,65.5 305.7,65.5 307.5,54 312.2,54 314.7,37.9 328.3,37.9 325.8,54 
			334.1,54 332.3,65.5 323.9,65.5 		"/>
		<path class="st1" d="M359.1,52.5c3.7,0,7,0.6,9.9,1.9c2.9,1.3,5.2,3,7.1,5.2c1.8,2.2,3.1,4.9,3.9,8.1c0.7,3.1,0.8,6.6,0.2,10.2
			c-0.6,3.7-1.7,7.1-3.4,10.2c-1.7,3.1-3.9,5.8-6.4,8c-2.6,2.2-5.5,4-8.7,5.2c-3.3,1.3-6.8,1.9-10.5,1.9c-3.8,0-7.1-0.6-9.9-1.9
			c-2.8-1.3-5.2-3-7-5.2c-1.8-2.2-3.1-4.9-3.8-8c-0.7-3.1-0.8-6.5-0.2-10.2c0.6-3.7,1.7-7.1,3.4-10.2c1.7-3.1,3.8-5.8,6.4-8.1
			c2.6-2.2,5.5-4,8.7-5.2C351.9,53.1,355.4,52.5,359.1,52.5 M357.2,64.5c-1.7,0-3.4,0.4-4.9,1.2c-1.5,0.8-2.9,1.8-4,3.1
			c-1.2,1.3-2.1,2.7-2.9,4.3c-0.8,1.6-1.3,3.2-1.6,4.9c-0.3,1.6-0.3,3.2,0,4.8c0.3,1.6,0.8,3,1.6,4.3c0.8,1.3,1.8,2.3,3.1,3.1
			c1.3,0.8,2.8,1.2,4.5,1.2c1.7,0,3.4-0.4,4.9-1.2c1.5-0.8,2.9-1.8,4-3.1c1.2-1.3,2.1-2.7,2.9-4.3c0.8-1.6,1.3-3.2,1.6-4.8
			c0.3-1.6,0.3-3.2,0-4.9c-0.3-1.6-0.8-3.1-1.6-4.3c-0.8-1.3-1.8-2.3-3.1-3.1C360.5,64.9,359,64.5,357.2,64.5"/>
		<path class="st1" d="M403.2,59h0.2c1.7-2.1,3.6-3.7,5.8-4.8c2.2-1.1,4.5-1.7,7-1.7c1,0,1.9,0.1,2.9,0.3c0.9,0.2,1.8,0.5,2.6,0.8
			L418,66.3c-1.5-1.2-3.3-1.7-5.3-1.7c-2.3,0-4.3,0.5-5.8,1.4c-1.6,0.9-2.8,2.2-3.7,3.7c-0.9,1.5-1.7,3.2-2.2,5.1
			c-0.5,1.9-0.9,3.7-1.2,5.5l-3.4,21.5h-13.6l7.6-47.7h13.6L403.2,59z"/>
		<path class="st1" d="M432.8,80c-0.3,1.5-0.3,3-0.2,4.5c0.1,1.5,0.4,2.9,0.9,4.1s1.3,2.2,2.4,3c1.1,0.8,2.5,1.2,4.3,1.2
			c2.3,0,4.2-0.6,5.9-1.8c1.6-1.2,3.1-2.8,4.3-4.7l12.2,2c-2.5,4.8-5.8,8.5-10.1,11c-4.3,2.6-8.9,3.8-14,3.8c-3.7,0-6.9-0.6-9.6-1.8
			c-2.7-1.2-4.9-3-6.7-5.2c-1.7-2.2-2.9-4.9-3.5-7.9c-0.6-3-0.6-6.4,0-10c0.6-3.6,1.6-7,3.1-10.1c1.5-3.1,3.3-5.9,5.6-8.2
			c2.3-2.3,5-4.2,8.1-5.5c3.1-1.3,6.6-2,10.4-2c3.9,0,7.2,0.7,9.8,2c2.7,1.4,4.7,3.2,6.2,5.5c1.5,2.3,2.4,5.1,2.8,8.3
			c0.4,3.2,0.3,6.5-0.2,10.1l-0.3,1.6H432.8z M452.7,71.6c0-1.2-0.1-2.4-0.4-3.5c-0.3-1.1-0.7-2.2-1.3-3.1c-0.6-0.9-1.4-1.6-2.4-2.2
			c-1-0.5-2.1-0.8-3.4-0.8c-1.4,0-2.6,0.3-3.7,0.8c-1.1,0.6-2.2,1.3-3.1,2.1c-0.9,0.9-1.7,1.9-2.3,3.1c-0.6,1.2-1.2,2.4-1.6,3.6
			H452.7z"/>
	</g>
</g>
<g>
	<g>
		<path class="st0" d="M506.3,11.3c-3.1,0-5.7-2.5-5.7-5.7c0-3.1,2.5-5.7,5.7-5.7c3.1,0,5.7,2.5,5.7,5.7
			C512,8.8,509.4,11.3,506.3,11.3z M506.3,0.7c-2.7,0-5,2.2-5,5c0,2.7,2.2,5,5,5c2.7,0,5-2.2,5-5C511.3,2.9,509,0.7,506.3,0.7z"/>
	</g>
	<g>
		<path class="st0" d="M509.3,8.9h-1.4L507,7.5c-0.4-0.6-0.6-1-0.8-1.1c-0.2-0.1-0.4-0.2-0.8-0.2h-0.2v2.7h-1.2V2.5h2.5
			c0.6,0,1.1,0.1,1.3,0.2c0.3,0.1,0.6,0.4,0.7,0.7c0.1,0.3,0.2,0.6,0.2,0.9c0,0.4-0.1,0.7-0.2,1c-0.2,0.3-0.4,0.5-0.6,0.6
			c-0.2,0.1-0.4,0.2-0.6,0.2v0c0.3,0.2,0.5,0.3,0.6,0.5c0.2,0.2,0.4,0.6,0.7,1L509.3,8.9z M507.6,4.4c0-0.3-0.1-0.5-0.3-0.6
			c-0.1-0.1-0.2-0.1-0.4-0.1c-0.1,0-0.4,0-0.8,0h-0.9v1.6h0.9c0.6,0,0.9,0,1.1-0.1C507.5,5,507.6,4.7,507.6,4.4z"/>
	</g>
</g>
</svg>
